name rise30.2954peak35.7071fall66.7804.mot
datacolumns 19
datarows 32
range 22.29492400000000 22.34658900000000
endheader
time	ground_force1_vx	ground_force1_vy	ground_force1_vz	ground_force1_px	ground_force1_py	ground_force1_pz	ground_force2_vx	ground_force2_vy	ground_force2_vz	ground_force2_px	ground_force2_py	ground_force2_pz	ground_torque1_x	ground_torque1_y	ground_torque1_z	ground_torque2_x	ground_torque2_y	ground_torque2_z	
22.29492400000000	-36.42807100000000	788.27364299999999	52.62312200000000	0.07610400000000	0.00000000000000	0.11945800000000	-3.81613000000000	62.31048300000000	8.54281600000000	0.31107200000000	0.00000000000000	-0.07986400000000	0.00000000000000	18.58609200000000	0.00000000000000	0.00000000000000	5.07572300000000	0.00000000000000	
22.29658500000000	-36.64812700000000	785.65509199999997	52.42115000000000	0.07545200000000	0.00000000000000	0.11934800000000	-3.98233100000000	69.07775700000001	9.15755500000000	0.31355200000000	0.00000000000000	-0.07993400000000	0.00000000000000	18.48815000000000	0.00000000000000	0.00000000000000	5.48451100000000	0.00000000000000	
22.29825100000000	-36.87386700000000	782.91995699999995	52.19809300000000	0.07481000000000	0.00000000000000	0.11923400000000	-4.08099500000000	75.66341500000000	9.68242200000000	0.31585700000000	0.00000000000000	-0.08000600000000	0.00000000000000	18.38941600000000	0.00000000000000	0.00000000000000	5.84609500000000	0.00000000000000	
22.29991600000000	-37.10588000000000	780.06840799999998	51.95366100000000	0.07417800000000	0.00000000000000	0.11911500000000	-4.11080700000000	82.04783500000001	10.11654300000000	0.31800400000000	0.00000000000000	-0.08007900000000	0.00000000000000	18.29008300000000	0.00000000000000	0.00000000000000	6.15940300000000	0.00000000000000	
22.30158700000000	-37.34472300000000	777.10064799999998	51.68760300000000	0.07355600000000	0.00000000000000	0.11899200000000	-4.07274000000000	88.23456400000001	10.46330100000000	0.32000700000000	0.00000000000000	-0.08015400000000	0.00000000000000	18.19033900000000	0.00000000000000	0.00000000000000	6.42594000000000	0.00000000000000	
22.30325600000000	-37.59092400000000	774.01690199999996	51.39971300000000	0.07294200000000	0.00000000000000	0.11886500000000	-3.96957800000000	94.24633200000000	10.72941200000000	0.32187600000000	0.00000000000000	-0.08023200000000	0.00000000000000	18.09036600000000	0.00000000000000	0.00000000000000	6.64927600000000	0.00000000000000	
22.30492100000000	-37.84497400000000	770.81741299999999	51.08982900000000	0.07233700000000	0.00000000000000	0.11873300000000	-3.80537000000000	100.12019900000000	10.92389300000000	0.32362300000000	0.00000000000000	-0.08031300000000	0.00000000000000	17.99034500000000	0.00000000000000	0.00000000000000	6.83444800000000	0.00000000000000	
22.30658900000000	-38.10732800000000	767.50243699999999	50.75783600000000	0.07174000000000	0.00000000000000	0.11859700000000	-3.58488900000000	105.90235699999999	11.05701900000000	0.32525500000000	0.00000000000000	-0.08039700000000	0.00000000000000	17.89045000000000	0.00000000000000	0.00000000000000	6.98734600000000	0.00000000000000	
22.30824800000000	-38.37839600000000	764.07223699999997	50.40366300000000	0.07115000000000	0.00000000000000	0.11845700000000	-3.31313000000000	111.64308699999999	11.13935100000000	0.32677900000000	0.00000000000000	-0.08048400000000	0.00000000000000	17.79084800000000	0.00000000000000	0.00000000000000	7.11412600000000	0.00000000000000	
22.30991400000000	-38.65854400000000	760.52707899999996	50.02728800000000	0.07056800000000	0.00000000000000	0.11831200000000	-2.99487700000000	117.39224500000000	11.18091600000000	0.32820400000000	0.00000000000000	-0.08057500000000	0.00000000000000	17.69170000000000	0.00000000000000	0.00000000000000	7.22071100000000	0.00000000000000	
22.31159200000000	-38.94808900000000	756.86722499999996	49.62873400000000	0.06999200000000	0.00000000000000	0.11816300000000	-2.63437800000000	123.19553500000001	11.19055700000000	0.32953500000000	0.00000000000000	-0.08066800000000	0.00000000000000	17.59316000000000	0.00000000000000	0.00000000000000	7.31238100000000	0.00000000000000	
22.31324900000000	-39.24729600000000	753.09293300000002	49.20807300000000	0.06942200000000	0.00000000000000	0.11801000000000	-2.23511000000000	129.09172300000000	11.17549100000000	0.33077600000000	0.00000000000000	-0.08076500000000	0.00000000000000	17.49537200000000	0.00000000000000	0.00000000000000	7.39349400000000	0.00000000000000	
22.31492100000000	-39.55637500000000	749.20444799999996	48.76542700000000	0.06885800000000	0.00000000000000	0.11785200000000	-1.79966100000000	135.11084500000001	11.14106500000000	0.33193400000000	0.00000000000000	-0.08086600000000	0.00000000000000	17.39847300000000	0.00000000000000	0.00000000000000	7.46731500000000	0.00000000000000	
22.31658700000000	-39.87547800000000	745.20200399999999	48.30096100000000	0.06829800000000	0.00000000000000	0.11769000000000	-1.32969800000000	141.27334900000000	11.09069100000000	0.33301100000000	0.00000000000000	-0.08097000000000	0.00000000000000	17.30258900000000	0.00000000000000	0.00000000000000	7.53596500000000	0.00000000000000	
22.31824900000000	-40.20469300000000	741.08581400000003	47.81489400000000	0.06774300000000	0.00000000000000	0.11752400000000	-0.82602300000000	147.59009200000000	11.02593900000000	0.33401200000000	0.00000000000000	-0.08107700000000	0.00000000000000	17.20783800000000	0.00000000000000	0.00000000000000	7.60045700000000	0.00000000000000	
22.31991500000000	-40.54404800000000	736.85607400000004	47.30748800000000	0.06719100000000	0.00000000000000	0.11735400000000	-0.28867900000000	154.06301300000001	10.94674800000000	0.33494100000000	0.00000000000000	-0.08118800000000	0.00000000000000	17.11432600000000	0.00000000000000	0.00000000000000	7.66081500000000	0.00000000000000	
22.32158100000000	-40.89350200000000	732.51296000000002	46.77905400000000	0.06664200000000	0.00000000000000	0.11718000000000	0.28288600000000	160.68632199999999	10.85171800000000	0.33580100000000	0.00000000000000	-0.08130200000000	0.00000000000000	17.02214600000000	0.00000000000000	0.00000000000000	7.71624100000000	0.00000000000000	
22.32325600000000	-41.25294600000000	728.05661899999996	46.22995000000000	0.06609500000000	0.00000000000000	0.11700100000000	0.88964500000000	167.44801799999999	10.73845300000000	0.33659400000000	0.00000000000000	-0.08141900000000	0.00000000000000	16.93138200000000	0.00000000000000	0.00000000000000	7.76531500000000	0.00000000000000	
22.32492200000000	-41.62219900000000	723.48717899999997	45.66058000000000	0.06555000000000	0.00000000000000	0.11681900000000	1.53280900000000	174.33155500000001	10.60390700000000	0.33732300000000	0.00000000000000	-0.08153900000000	0.00000000000000	16.84210400000000	0.00000000000000	0.00000000000000	7.80620100000000	0.00000000000000	
22.32658700000000	-42.00100800000000	718.80473700000005	45.07139300000000	0.06500500000000	0.00000000000000	0.11663300000000	2.21364900000000	181.31752200000000	10.44472100000000	0.33799000000000	0.00000000000000	-0.08166200000000	0.00000000000000	16.75436900000000	0.00000000000000	0.00000000000000	7.83685500000000	0.00000000000000	
22.32825500000000	-42.38904300000000	714.00936600000000	44.46288400000000	0.06446100000000	0.00000000000000	0.11644400000000	2.93334600000000	188.38519400000001	10.25752200000000	0.33859900000000	0.00000000000000	-0.08178900000000	0.00000000000000	16.66822300000000	0.00000000000000	0.00000000000000	7.85520100000000	0.00000000000000	
22.32992000000000	-42.78590000000000	709.10111500000005	43.83558800000000	0.06391700000000	0.00000000000000	0.11625000000000	3.69286000000000	195.51387900000000	10.03916400000000	0.33915000000000	0.00000000000000	-0.08191800000000	0.00000000000000	16.58369400000000	0.00000000000000	0.00000000000000	7.85928100000000	0.00000000000000	
22.33158500000000	-43.19109700000000	704.08000400000003	43.19008600000000	0.06337100000000	0.00000000000000	0.11605300000000	4.49284000000000	202.68399299999999	9.78691900000000	0.33964600000000	0.00000000000000	-0.08205000000000	0.00000000000000	16.50079900000000	0.00000000000000	0.00000000000000	7.84737800000000	0.00000000000000	
22.33326000000000	-43.60407300000000	698.94603300000006	42.52699800000000	0.06282400000000	0.00000000000000	0.11585300000000	5.33356100000000	209.87784600000001	9.49859800000000	0.34008900000000	0.00000000000000	-0.08218500000000	0.00000000000000	16.41954000000000	0.00000000000000	0.00000000000000	7.81808300000000	0.00000000000000	
22.33491600000000	-44.02418900000000	693.69917699999996	41.84698200000000	0.06227400000000	0.00000000000000	0.11564900000000	6.21489200000000	217.08013299999999	9.17261500000000	0.34048000000000	0.00000000000000	-0.08232200000000	0.00000000000000	16.33990300000000	0.00000000000000	0.00000000000000	7.77034500000000	0.00000000000000	
22.33658400000000	-44.45072600000000	688.33939799999996	41.15073700000000	0.06172200000000	0.00000000000000	0.11544200000000	7.13629600000000	224.27815799999999	8.80800600000000	0.34082000000000	0.00000000000000	-0.08246200000000	0.00000000000000	16.26185900000000	0.00000000000000	0.00000000000000	7.70348100000000	0.00000000000000	
22.33824900000000	-44.88288800000000	682.86663899999996	40.43899500000000	0.06116600000000	0.00000000000000	0.11523200000000	8.09684700000000	231.46182600000000	8.40439200000000	0.34111000000000	0.00000000000000	-0.08260400000000	0.00000000000000	16.18536400000000	0.00000000000000	0.00000000000000	7.61715400000000	0.00000000000000	
22.33991800000000	-45.31980100000000	677.28083800000002	39.71252500000000	0.06060500000000	0.00000000000000	0.11502000000000	9.09526800000000	238.62345500000001	7.96192500000000	0.34135300000000	0.00000000000000	-0.08274900000000	0.00000000000000	16.11036000000000	0.00000000000000	0.00000000000000	7.51134500000000	0.00000000000000	
22.34158700000000	-45.76051400000000	671.58192899999995	38.97212500000000	0.06004000000000	0.00000000000000	0.11480400000000	10.12997900000000	245.75745400000000	7.48120400000000	0.34154900000000	0.00000000000000	-0.08289500000000	0.00000000000000	16.03677100000000	0.00000000000000	0.00000000000000	7.38630000000000	0.00000000000000	
22.34325500000000	-46.20400100000000	665.76985100000002	38.21862800000000	0.05947000000000	0.00000000000000	0.11458500000000	11.19914800000000	252.85992899999999	6.96318200000000	0.34169900000000	0.00000000000000	-0.08304400000000	0.00000000000000	15.96450700000000	0.00000000000000	0.00000000000000	7.24247600000000	0.00000000000000	
22.34491600000000	-46.64916200000000	659.84455600000001	37.45289000000000	0.05889400000000	0.00000000000000	0.11436400000000	12.30074900000000	259.92824800000000	6.40907400000000	0.34180400000000	0.00000000000000	-0.08319400000000	0.00000000000000	15.89346100000000	0.00000000000000	0.00000000000000	7.08048100000000	0.00000000000000	
22.34658900000000	-47.09482700000000	653.80601899999999	36.67579700000000	0.05831100000000	0.00000000000000	0.11414100000000	13.43261100000000	266.96063099999998	5.82026700000000	0.34186500000000	0.00000000000000	-0.08334700000000	0.00000000000000	15.82351300000000	0.00000000000000	0.00000000000000	6.90102600000000	0.00000000000000	
